<svg width="100%" height="100%" viewBox="0 0 1305 555"
     xmlns="http://www.w3.org/2000/svg" 
     xmlns:xlink="http://www.w3.org/1999/xlink">

  <title>Santa Floss</title>

  <desc><![CDATA[
    Santa Floss
  
    From The Floss Animated Sprite Sheet
    
    original work: https://openclipart.org/detail/311179/the-floss
    
    Javascript performs the animation by changing the viewBox attribute
    to display the appropriate frame
    
    Jay Nick
    STEAMcoded.org
  ]]>
  </desc>
  
  <script type="application/x-javascript"><![CDATA[
    var SpriteSheetAnimation = new function()
    {
      window.addEventListener("load",init);
      var frameindex = 0;
      var numMoves = 20;
      var frames = Array(1,2,3,4,3,2,1,2,5,6,7,6,8,9,8,6,7,6,10,2);
      
      function init()
      {
        setTimeout(startAnimation,1000);
      }
      
      function startAnimation()
      {
        setInterval(DisplayNextFrame,125);
        document.documentElement.setAttribute("viewBox","0 0 225 255");
        document.getElementById("sprites").setAttribute("style","clip-path:url(#cp1);");
      }
      
      function DisplayNextFrame()
      {
        var frame = frames[frameindex]-1;
        document.documentElement.setAttribute("viewBox",(frame%5)*270+" "+Math.floor(frame/5)*300+" 225 255");
        //document.getElementById("cp1").setAttribute("viewBox",(frame%6)*270+" "+Math.floor(frame/5)*300+" 220 250");
        document.getElementById("cp").setAttribute("x",(frame%5)*270);
        document.getElementById("cp").setAttribute("y",Math.floor(frame/5)*300);
        frameindex++;
        if(frameindex==numMoves) frameindex=0;
      }
    }();
  ]]>
  </script>

  <defs>
   <g id="santa" transform="scale(0.35) translate(70 787)">
    <path style="fill:#000000" d="m366.81 256.04c-6.02-1.34-11.3-4.82-15.71-9.01-4.45-0.85 0.12 10.01-5.35 5.82-8.6-3.99-17.13-8.58-23.69-15.58-2.94-2.63-5.88-6.48-8.98-8.1-0.04 2.51-0.46 8.3-3.49 3.9-4.56-5.19-7.88-11.43-9.05-18.27-1.28-5.05-2.18-10.47-2.92-15.45-2.15 2.1-6.04 7.02-5.67 0.71-0.43-10.59 0.83-22.06 8.08-30.37 3.04-4.15 7.52-7.04 10.36-11.31-4.09-2.58 0.58-6.61 3.71-8.23 1.6-0.84 3.06-1.74 1.8-3.62-1.82-5.88-2.92-12.35-1.36-18.4 1.86-3.88 5.01-7.22 5.54-11.69 1.14-3.98 1.31-7.9-3.86-7.12-10.55-1.91-21.12-4.07-31.23-7.65-2.26-2.842 6.42-4.68 8.71-6.66 19.29-9.969 38.47-20.985 59.91-25.635 11.73-2.412 23.91-6.005 35.93-3.469 9.61 2.088 15.52 10.975 19.14 19.449 4.79 9.907 7.52 20.825 13.53 30.105 2.76 3.96 5.79 8.11 6.6 12.96-0.44 8.13-5.68 14.7-9.84 21.34 6.51 4.02 12.64 8.85 16.84 15.36 1.74 1.78 5.12 8.33 0.2 4.52-1.4-1.72-6.57-3.65-7.19-2.31 6.23 5.86 8.15 14.64 9.27 22.79 0.75 8.09 1.26 16.39-0.37 24.4-1.78 4.97-4.22-6.82-5.41-0.81-2.49 7.79-5.87 15.36-10.35 22.21-3.09 2.77-3.7-8.84-6.53-2.4-4.25 5.42-7.83 11.45-12.84 16.24-2.47-0.46-2.26-4.63-2.92-6.88 0.14-2.82-1.35-1.05-2.6 0.03-7.63 6.4-16.05 13.53-26.54 13.56-1.25-0.03-2.5-0.17-3.72-0.43z" />
    <path style="fill:#ffffff" d="m381.86 251.68c6.36-3.1 11.34-8.2 16.95-12.37 3.75-0.96 1.73 11.77 6.05 5.48 4.3-5.09 8.01-10.65 11.87-16.07 3.4-2.83 3.25 9.26 5.98 3.22 3.58-6.92 6.72-14.09 8.96-21.55 1.82-4.53 5.14 6.17 5.27-0.37 1.64-11.91-0.17-24.29-4.68-35.4-0.55-3.32-4.72-5.32-5.17-7.9 2.39-1.32 5.26-0.94 7.89-1.29-5.8-5.41-11.03-12.33-19.06-14.33-4.25-0.94-8.4 0.72-12.35 2.11 5.49 2.01 11.2 5.14 13.16 11.04 3.49 8.61-1.47 19.47-10.44 22.14-3.76 0.48-9.6 0.09-7.19 5.85 2.4 4.22 3.71 9.35-1.6 12.1-5.58 3.64-13.65 5.17-19.15 0.53-3.09-2.43-7.11-6.39-10.4-1.81-7.11 5.1-18.3 6.63-24.8-0.27-1.19-1.12-3.01-2.15-1.21-3.66 2.39-3.58 3.74-8.36 2.33-12.49-4.84-1.7-10.75-2.3-13.87-7.13-6.3-7.69-4.3-20.14 3.83-25.72 1.49-2.31 6.58-2.24 7.24-3.58-5.71-2.86-12.6-4.67-18.79-2.2-4.63 1.43-8.96 3.94-12.04 7.73 2.21 0.18 6.47 3.01 2.17 3.67-6.15 4.69-11.39 10.71-15.29 17.39-4.35 6.73-3.2 14.95-3.76 22.55-0.39 2.43 1.4-1.13 2.09-1.67 1.16-2.73 4.55-3.3 3.92 0.53 0.12 11.59 3.06 23.57 10.07 32.97 1.13 2.09 1.8 2.44 1.65-0.23 0.02-2.59 0.5-8.53 3.43-4.02 5.32 6.56 11.03 12.99 18.41 17.31 4.58 2.82 9.34 5.34 14.16 7.69 1.15-2.53-1.35-10.64 2.68-9.12 4.98 6.98 13.32 12.24 22.1 11.95 3.4-0.19 6.59-1.54 9.59-3.08z" />
    <path style="fill:#ffffff" d="m362.44 204.34c3.63-1.47 6.61-4.05 9.36-6.77 4.83 4.83 11.25 9.53 18.46 7.98 3.79-1.09 11.18-3.4 9.17-8.45-4.1-5.84-1.01-13.97-4.97-19.9-3.41-4.42-9.24-4.55-13.93-2.29-7.85 2.34-16.35 0.21-22.98-4.33-4.56-0.53-8.5 4.57-10.34 8.33-2.61 6.29-0.05 13.5-2.86 19.67-2.67 3.82 3.73 6.07 6.67 6.83 3.79 0.83 7.83 0.4 11.42-1.07z" />
    <path style="fill:#ffe7c6" d="m407.54 183.97c7.02-3.13 11.38-12.32 7.41-19.38-2.04-4.92-6.6-8.74-12.04-9-3.89-0.28-9.66-0.49-11.5 3.6 1.32 4.53-1.12 8.93-2.2 12.61 5.52 0.52 8.59 6.65 9.43 11.56 1.08 4.73 6.17 1.68 8.9 0.61z" />
    <path style="fill:#ffe7c6" d="m344.81 181.3c0.45-5.71 4.97-9.92 9.31-13.05 1.69-4.15 2.56-10.73-2.49-12.94-7.14-5.37-18.53-2.24-21.91 6.03-5.08 8.9 1.44 21.99 11.83 22.59 1.82 0.28 3.73-0.44 3.26-2.63z" />
    <path style="fill:#ffe7c6" d="m383.67 172.01c3.92-1.46 7.37-5.23 6.21-9.67-1.89-6.67-9.7-9.38-16-9.41-6.47-0.01-14.61 2.17-16.81 9.06-1.3 6.09 5.07 10.48 10.35 11.43 5.36 0.82 11.2 0.76 16.25-1.41z" />
    <path style="fill:#ffe7c6" d="m362.42 153.95c6.22-3.55 14.04-4.11 20.47-0.78 4.45 3.34 9.51 3.41 14.21 0.68 2.45-0.24 7-1.93 2.29-3.4-2.65-1.32-8.4-4.77-7.82 0.86-2.04 4.78-7.3 1.24-8.84-1.75-2.49 3.39-4.12-1.02-0.73-1.98 4.48-3.24 10.44-3.29 15.15-0.48 0.94 0.26 4.21 2.65 3.35 1.25-2.82-4.54-6.16-10.29-12.1-10.59-5.07 0.13-6.74 5.65-9.9 8.57-4.91 1.85-1.79-6.9-1.58-9.53 1.25-4.51 3.01-9.89 7.79-11.73 0.01-2.73-7.27-1.55-9.97-2.06-3.11-0.03-6.21-0.05-9.32-0.08 3.62 3.92 8.28 7.77 8.29 13.58-0.25 2.96 1.6 10.81-3.18 9.81-4.37-2.35-7-8-12.32-8.36-3.07 0.37-8.1 3.3-7.28 6.47 4.69 0.4 9.54 0.05 14.06 1.72 2.16-0.28 7.47 4.17 2.65 3.53-2.79-1.13-8.5-5.18-8.17 0.75-2.65 4.88-8.37 1.86-8.03-2.93-2.53-0.67-5.11 1.3-7.62 1.93-0.66 0.69 3.7 1.17 4.59 1.99 4.48 1.41 7.58 8.12 12.26 3.41 0.59-0.29 1.17-0.59 1.75-0.88z" />
    <path style="fill:#ffffff" d="m405.88 148c-3.31-3.86-3.67-9.13-4.76-13.82-2.9-5.93-10.98-10.66-17.19-6.76-4.72 3.65-6.01 10.09-6.71 15.69 1.04 4.87 2.88-3.51 5.1-4.08 2.97-3.26 8.29-4.19 11.79-1.21 4.52 2.94 5.91 8.73 10.22 11.81 1.93 0.54 4.5 0.73 1.55-1.63z" />
    <path style="fill:#ffe7c6" d="m413.63 144.75c-3.41-5.73-8.18-10.45-12.67-15.32 1.88 5.81 2.99 11.96 5.97 17.32 2.03 2.96 5.94 1.96 9.01 2.18-0.77-1.39-1.54-2.79-2.31-4.18z" />
    <path style="fill:#ffffff" d="m327.69 144.92c3.85-2.2 4.53-7.46 8.05-10.22 8.6-9.38 21.68-13.53 34.17-13.2 10.22-0.14 21.15 0.08 29.91 6.05 6.74 4.33 12.03 10.76 16.03 17.64 2.25 6.39 5.36-2.71 7.24-5.07 2.87-4.34 4.77-9.76 2.89-14.89-3.86-10.9-14.66-17.49-24.99-21.33-13.36-4.727-28-4.754-41.84-2.4-11.13 2.6-21.37 8.21-30.79 14.54-5.64 4.14-12.42 8.93-12.84 16.58-0.55 5.2 0.96 10.26 2.34 15.21 3.24-1.09 6.42-2.49 9.83-2.91z" />
    <path style="fill:#ffe7c6" d="m342.66 141.37c1.14-4.54 3.15-8.77 4.82-13.11-3.77 0.91-6.71 4.19-9.69 6.62-2.66 2.51-8.88 9.06-2.97 11.08 3.34 0.85 6.57-1.63 7.84-4.59z" />
    <path style="fill:#ffffff" d="m349.55 142.02c2.79-3.46 7.47-7.52 12.15-5.04 4.09 0.93 6.19 8.27 10.07 6.95 2.34-4.96-0.08-10.77-2.87-15.04-2.92-4.79-9.59-6.38-14.33-3.33-4.97 2.4-7.82 7.38-9.09 12.56-0.09 3.19-4.04 6.65-3.88 8.77 3.47 0.59 5.86-2.67 7.95-4.87z" />
    <path style="fill:#ff0000" d="m329.02 113.56c15.23-10.9 34.15-17.023 52.95-15.18 11.03 0.986 22.29 3.37 31.58 9.73 2.26 1.88 3.75 1.46 2.22-1.32-3.82-9.882-7.52-19.913-12.86-29.093-3.74-6.499-10.76-10.797-18.28-10.992-13.12-0.537-25.91 3.192-38.51 6.364-19.21 5.402-36.49 15.638-54.19 24.588-1.77 0.918-3.54 1.837-5.31 2.753 8.8 3.74 18.41 4.99 27.74 6.74 2.07 0.31 4.16 0.58 6.24 0.87 0.46-5.62-0.11-11.478 1.79-16.865 2.89-2.894-0.26 4.456 0.16 6.122-0.35 3.043-0.54 6.103-0.8 9.153 3.28-6.32 5.85-13.131 10.17-18.829 2.4 0.619-2.53 5.699-3.08 7.825-3.1 6.904-6.05 14.084-7.1 21.614 0.69 2.33 5.74-3.05 7.28-3.48z" />
    <path style="fill:#000000" d="m276.2 119.49c-1.06-2.04 0.35-5.61 1.28-1.66 0.98 1.83 0.67 4.99-1.28 1.66z" />
    <path style="fill:#000000" d="m270.81 116.93c-0.23-4.8 2.96-1.93 1.93 1.17-0.52 3.83-2.22 0.61-1.93-1.17z" />
    <path style="fill:#000000" d="m281 117.72c-1.8-1.43-1.27-6.91 0.43-2.45 0.59 0.95 2.44 5.18-0.43 2.45z" />
    <path style="fill:#000000" d="m265.44 115.18c-0.28-2.43 2.73-4.89 1.86-0.96-0.11 2.39-2.71 6.44-1.86 0.96z" />
    <path style="fill:#000000" d="m260.98 113.46c2.68-5.36 2.9 2.85-0.47 2.29-0.23-0.79 0.22-1.58 0.47-2.29z" />
    <path style="fill:#000000" d="m284.71 111.99c-4.74-3.88 4.57-0.52 2.57 1.47-0.98-0.23-1.8-0.85-2.57-1.47z" />
    <path style="fill:#000000" d="m255.44 112.14c0.34-2.5 9.27-4.3 4.12-1.11-1.2 0.56-2.77 1.64-4.12 1.11z" />
    <path style="fill:#000000" d="m284.81 107.04c1.63-2.41 7.85 0.92 2.5 0.89-0.78-0.1-2.12 0.02-2.5-0.89z" />
    <path style="fill:#000000" d="m254.81 105.1c1.43-2.2 9.35 0.22 3.61 0.82-1.16-0.05-2.83 0.2-3.61-0.82z" />
    <path style="fill:#000000" d="m257.31 99.934c-3.96-2.309 7.94 0.076 2.69 0.836-0.93-0.15-1.82-0.47-2.69-0.836z" />
    <path style="fill:#000000" d="m261.26 94.352c-4.45-3.119 7.56 0.728 2.1 1.362-0.78-0.327-1.45-0.842-2.1-1.362z" />
    <path style="fill:#000000" d="m284.68 93.9c1.16-2.317 6.43-2.259 2.67 0.24-1.72 1.477-6.6 2.654-2.67-0.24z" />
    <path style="fill:#000000" d="m280.52 94.263c-0.05-2.04 2.39-7.42 3.97-6.54-0.75 2.192-1.71 5.852-3.97 6.54z" />
    <path style="fill:#000000" d="m264.47 90.105c-3.4-3.211-0.25-2.938 1.72-0.746 3.67 2.694 0.01 3.487-1.72 0.746z" />
    <path style="fill:#000000" d="m276.85 90.184c0.49-1.708 2.41-4.777 3.03-5.491-0.82 1.972-0.2 7.727-3.03 5.491z" />
    <path style="fill:#000000" d="m273.39 87.686c-1.36-2.169 1.12-8.408 1.29-2.951 0.08 0.99-0.09 8.747-1.29 2.951z" />
    <path style="fill:#000000" d="m268.79 86.369c-2.2-2.975 0.38-4.734 1.47-1.038 1.54 2.935 0.6 5.753-1.47 1.038z" />
  </g>   
    <circle id="joint" r="4.6" style="fill:black;" />

    <clipPath id="cp1" viewBox="0 300 220 250">
      <rect id="cp" x="0" y="0" width="225" height="255" />
    </clipPath>
  </defs>
  
  
  <g id="sprites">
    <g transform="translate(2,2)" style="fill:none;stroke:#000000;stroke-width:1.5;">
      <rect x="0" y="0"  width="220" height="250"/>
      <rect x="270" y="0"  width="220" height="250"/>
      <rect x="540" y="0"  width="220" height="250"/>
      <rect x="810" y="0"  width="220" height="250"/>
      <rect x="1080" y="0"  width="220" height="250"/>
      <rect x="0" y="300"  width="220" height="250"/>
      <rect x="270" y="300"  width="220" height="250"/>
      <rect x="540" y="300"  width="220" height="250"/>
      <rect x="810" y="300"  width="220" height="250"/>
      <rect x="1080" y="300"  width="220" height="250"/>
    </g>
  <g transform="translate(-94,-398)">
    <g id="f1">
      <circle r="2.6" cy="530.48267" cx="190.52609" style="fill:#000000;stroke:#000000;stroke-width:4;"/>
      <use y="530.48267" x="190.52609" xlink:href="#joint" />
      <path style="fill:#ff0000;stroke:#000000;stroke-width:2.20582986;" d="M164.61 501.11c14.78-40.29 30.78-31.54 32.96-43.78 1.09-6.12-0.66-8.56 4.77 3.35 8.14 17.83 5.83 31.39 4.87 42.43-0.71 8.16-1.11 10.01-3.11 15.03l-3.89 9.78-20.14-0.36-25.11-0.15z"/>
      <path style="fill:#000000;stroke:#000000;stroke-width:3;" d="M161.74 531.95l-0.47 0.16 16.65 48.47 6.68 50.3-6.18-50.39a0.27 0.17 45.224 0 0-0.01-0.05l-16.2-48.65-0.47 0.16z"/>
      <circle r="2.6" cy="531.38196" cx="161.16893" style="fill:#000000;stroke:#000000;stroke-width:4;"/>
      <circle r="2.6" cy="579.81055" cx="178.59752" style="fill:#000000;stroke:#000000;stroke-width:4;"/>
      <path style="fill:#000000;stroke:#000000;stroke-width:3;" d="M190.61 531.15l9.17 47.09a0.21 0.27 19.0238 0 0 0.02 0.07l24.51 48.82-24.04-49.01-8.68-47.16z"/>
      <circle r="2.6" cy="578.19696" cx="200.95467" style="fill:#000000;stroke:#000000;stroke-width:4;"/>
      <circle r="2.6" cy="481.95334" cx="221.31178" style="fill:#000000;stroke:#000000;stroke-width:4;"/>
      <circle r="2.6" cy="473.38196" cx="263.45465" style="fill:#000000;stroke:#000000;stroke-width:4;"/>
      <circle r="2.6" cy="475.66766" cx="181.16896" style="fill:#000000;stroke:#000000;stroke-width:4;"/>
      <circle r="2.6" cy="471.09622" cx="245.24036" style="fill:#000000;stroke:#000000;stroke-width:4;"/>
      <circle r="2.6" cy="460.38196" cx="284.8118" style="fill:#000000;stroke:#000000;stroke-width:4;"/>
      <circle r="2.6" cy="473.38196" cx="207.38324" style="fill:#000000;stroke:#000000;stroke-width:4;"/>
      <path style="fill:none;stroke:#000000;stroke-width:3;" d="M208.59 473.29l37.13-1.68a0.27 0.15 21.2317 0 0 0.05 0l39.94-10.25-40.03 9.75-37.13 1.18z"/>
      <path style="fill:none;stroke:#000000;stroke-width:3;" d="M183.95 476.84l38.2 5.64a0.27 0.22 37.8299 0 0 0.08 0l39.48-8.19-39.53 7.69-38.07-6.13z"/>
      <circle r="3.5" cy="632.13721" cx="185.12622" style="fill:#000000;stroke:#000000;stroke-width:5.33210659;"/>
      <circle r="3.5" cy="631.12708" cx="224.52216" style="fill:#000000;stroke:#000000;stroke-width:5.33210659;"/>
      <g transform="translate(44.597508,109.73405)">
        <use  xlink:href="#santa" />
      </g>
    </g>

    <g id="f2">
    <g transform="translate(11.5,-2)">
      <circle r="2.6" cy="531.91119" cx="455.24039" id="path4180-3-3-6" style="fill:#000000;stroke:#000000;stroke-width:4;"/>
      <path style="fill:#ff0000;stroke:#000000;stroke-width:2.20582986;" d="M426.8 509.99c3.51-16 27.3-38.99 29.49-51.23 1.09-6.12-0.66-8.56 4.77 3.35 8.14 17.83 5.54 32.53 5.54 43.61 0 7.81-1.65 10.5-2.65 15.18l-1.81 8.45-20.15 0-19.18-1.18z"/>
      <path style="fill:#000000;stroke:#000000;stroke-width:3;" d="M429.97 533.49l10.58 48.85 7.93 50.79-7.44-50.87a0.06 0.01 75.0059 0 0 0-0.02l-10.1-48.96z"/>
      <circle r="3.5" cy="635.16772" cx="449.0975" id="path4180-36" style="fill:#000000;stroke:#000000;stroke-width:5.33210659;"/>
      <circle r="2.6" cy="532.81055" cx="429.88324" style="fill:#000000;stroke:#000000;stroke-width:4;"/>
      <circle r="2.6" cy="581.23914" cx="441.3118" style="fill:#000000;stroke:#000000;stroke-width:4;"/>
      <path style="fill:#000000;stroke:#000000;stroke-width:3;" d="M455.32 532.59l10.96 47.8a0.17 0.05 89.1478 0 0 0.01 0.03l16.15 46.6-15.67-46.75-10.47-47.9z"/>
      <circle r="2.6" cy="579.62549" cx="465.66895" id="path4180-6-5-1" style="fill:#000000;stroke:#000000;stroke-width:4;"/>
      <circle r="3.5" cy="631.09625" cx="483.3118" style="fill:#000000;stroke:#000000;stroke-width:5.33210659;"/>
      <circle r="2.6" cy="497.38193" cx="490.02606" id="path4180-62-9-79" style="fill:#000000;stroke:#000000;stroke-width:4;"/>
      <circle r="2.6" cy="502.81052" cx="532.16895" id="path4180-62-9-2-20" style="fill:#000000;stroke:#000000;stroke-width:4;"/>
      <circle r="2.6" cy="479.09622" cx="447.88324" style="fill:#000000;stroke:#000000;stroke-width:4;"/>
      <circle r="2.6" cy="490.52481" cx="499.95465" style="fill:#000000;stroke:#000000;stroke-width:4;"/>
      <circle r="2.6" cy="495.81052" cx="543.52606" style="fill:#000000;stroke:#000000;stroke-width:4;"/>
      <circle r="2.6" cy="474.81052" cx="466.09753" style="fill:#000000;stroke:#000000;stroke-width:4;"/>
      <path style="fill:none;stroke:#000000;stroke-width:3;" d="M467.04 474.66l32.27 17.64a0.27 0.22 58.2072 0 0 0.09 0.02l44.31 5.47-44.2-5.95-31.98-18.06z"/>
      <path style="fill:none;stroke:#000000;stroke-width:3;" d="M450.54 480.23l35.81 16.2a0.27 0.19 52.4057 0 0 0.07 0.02l45.04 7.61-44.92-8.1-35.59-16.64z"/>
      <g transform="translate(303.3118,111.16262)">
        <use xlink:href="#santa" />
      </g>
    </g>
    </g>
    
    <g id="f3">
    <g transform="translate(1.5,-2)">
      <circle r="2.6" cy="474.81052" cx="740.66888" style="fill:#000000;stroke:#000000;stroke-width:4;"/>
      <circle r="2.6" cy="533.69696" cx="744.52606" id="path4180-3-3-6-0" style="fill:#000000;stroke:#000000;stroke-width:4;"/>
      <path style="fill:none;stroke:#000000;stroke-width:3;" d="M743.36 474.22c0.08 11.55 0.17 23.1 0.25 34.64a0.23 0.27 28.6856 0 0 0.02 0.1l16.3 37.4-15.82-37.55c0.08-11.53 0.17-23.06 0.25-34.59z"/>
      <circle r="2.6" cy="532.09625" cx="721.026" id="path4180-3-0-8" style="fill:#000000;stroke:#000000;stroke-width:4;"/>
      <path style="fill:#ff0000;stroke:#000000;stroke-width:2.22465372;" d="M715.15 510.25c-0.27-16.39 8.72-45.67 20.23-51.48 5.56-2.8-0.67-8.55 4.86 3.35 8.28 17.82 7.83 30.61 7.83 41.69 0 7.8 0.82 12.32 1.88 19.81l0.67 7.14-29.78-1.42-5.4-2.15z"/>
      <path style="fill:#000000;stroke:#000000;stroke-width:3;" d="M721.03 533.38l-0.5 0.07 6.82 47.09-0.32 51.06 0.82-51.07a0.24 0.11 62.5968 0 0 0-0.04l-6.33-47.18-0.49 0.07z"/>
      <circle r="3.5" cy="635.16772" cx="727.66888" style="fill:#000000;stroke:#000000;stroke-width:5.33210659;"/>
      <circle r="2.6" cy="580.88202" cx="727.02606" id="path4180-6-6-4" style="fill:#000000;stroke:#000000;stroke-width:4;"/>
      <path style="fill:#000000;stroke:#000000;stroke-width:3;" d="M743.89 532.57l8.96 47.81 7.53 48.17-7.04-48.25-8.46-47.91z"/>
      <circle r="2.6" cy="581.05408" cx="753.66888" id="path4180-6-5-1-3" style="fill:#000000;stroke:#000000;stroke-width:4;"/>
      <circle r="3.5" cy="631.09625" cx="761.88318" style="fill:#000000;stroke:#000000;stroke-width:5.33210659;"/>
      <circle r="2.6" cy="514.02484" cx="730.95453" style="fill:#000000;stroke:#000000;stroke-width:4;"/>
      <circle r="2.6" cy="549.95343" cx="740.026" style="fill:#000000;stroke:#000000;stroke-width:4;"/>
      <circle r="2.6" cy="479.09622" cx="726.45459" style="fill:#000000;stroke:#000000;stroke-width:4;"/>
      <circle r="2.6" cy="548.73907" cx="761.38312" style="fill:#000000;stroke:#000000;stroke-width:4;"/>
      <path style="fill:none;stroke:#000000;stroke-width:3;" d="M725.27 479.78l4.67 35.35 9.66 35.71-9.62-35.72-4.62-35.35z"/>
      <g transform="translate(581.88323,111.16262)">
        <use xlink:href="#santa" />
      </g>
    </g>
    </g>

    <g id="f4">
    <g transform="translate(8.5,-9)">
      <circle r="2.6" cy="481.68997" cx="1004.4064" id="path4180-62-9-7-6-5-0-6" style="fill:#000000;stroke:#000000;stroke-width:4;"/>
      <path style="fill:none;stroke:#000000;stroke-width:3;" d="M1007.12 480.93l-12.97 36.87-11.89 34.13 12.36-33.96 13.45-36.7z"/>
      <path style="fill:#ff0000;stroke:#000000;stroke-width:2.22465372;" d="M987.22 518.64c-0.34-16.39 0.38-47.19 11.9-52.99 5.56-2.8-7.05-2.17 4.86 3.35 9.04 4.19 18.56 22.78 21.64 33.42 2.6 8.98 2.42 12.21 3.47 17.95 0.22 7.48-0.81 12.56-0.84 14.73l-38.11-0.15-2.63-2.64z"/>
      <path style="fill:#000000;stroke:#000000;stroke-width:3;" d="M1000.26 540.26l-0.23 48.64-8.01 48.82 8.51-48.76a0.25 0.12 69.8088 0 0 0-0.04l0.73-48.65z"/>
      <circle r="3.5" cy="642.04718" cx="991.40643" style="fill:#000000;stroke:#000000;stroke-width:5.33210659;"/>
      <circle r="2.6" cy="539.7334" cx="1001.3499" id="path4180-3-0-8-4" style="fill:#000000;stroke:#000000;stroke-width:4;"/>
      <circle r="2.6" cy="589.27667" cx="1000.5517" id="path4180-6-6-4-4" style="fill:#000000;stroke:#000000;stroke-width:4;"/>
      <path style="fill:#000000;stroke:#000000;stroke-width:3;" d="M1023.62 539.33l-2.39 47.67a0.07 0.2 17.693 0 0 0 0.03l3.6 49.27-3.1-49.29 2.89-47.62z"/>
      <circle r="2.6" cy="540.07135" cx="1023.2991" id="path4180-3-3-6-0-0" style="fill:#000000;stroke:#000000;stroke-width:4;"/>
      <circle r="2.6" cy="588.29071" cx="1021.9064" id="path4180-6-5-1-3-7" style="fill:#000000;stroke:#000000;stroke-width:4;"/>
      <circle r="3.5" cy="637.97577" cx="1025.6207" style="fill:#000000;stroke:#000000;stroke-width:5.33210659;"/>
      <circle r="2.6" cy="519.16193" cx="978.45044" style="fill:#000000;stroke:#000000;stroke-width:4;"/>
      <circle r="2.6" cy="555.68225" cx="965.03546" style="fill:#000000;stroke:#000000;stroke-width:4;"/>
      <circle r="2.6" cy="483.70282" cx="990.19214" style="fill:#000000;stroke:#000000;stroke-width:4;"/>
      <circle r="2.6" cy="554.17206" cx="981.7392" style="fill:#000000;stroke:#000000;stroke-width:4;"/>
      <path style="fill:none;stroke:#000000;stroke-width:3;" d="M988.3 484.85l-10.21 31.69-12.47 38.68 12.51-38.67 10.25-31.67z"/>
      <g transform="translate(845.6208,118.04209)">
        <use xlink:href="#santa" />
      </g>
    </g>
    </g>
    
    <g id="f5">
    <g transform="translate(-2,-6)">
      <circle r="2.6" cy="535.23907" cx="1268.026" style="fill:#000000;stroke:#000000;stroke-width:4;"/>
      <path style="fill:#ff0000;stroke:#000000;stroke-width:2.22465372;" d="M1261.16 505.81c0.25-9.89 7.71-36.83 19.22-42.64 5.56-2.8-5.41-6.1 4.86 2.09 5.25 4.19 9.35 28.84 11.12 40.17 1.2 7.71 0.57 9.79 0.35 17.04l-2.6 10.93-32.81-0.92-0.61-8.2z"/>
      <circle r="2.6" cy="476.94315" cx="1289.962" style="fill:#000000;stroke:#000000;stroke-width:4;"/>
      <path style="fill:none;stroke:#000000;stroke-width:3;" d="M1288.36 477.4l3.03 34.12a0.01 0.09 0.2264 0 0 0 0.02l6.97 39.73-6.48-39.8-2.53-34.15z"/>
      <path style="fill:#000000;stroke:#000000;stroke-width:3;" d="M1267.53 536.55l3.05 47.12-2.57 48.26 3.07-48.25a0.19 0.06 73.3362 0 0 0-0.03l-2.55-47.15z"/>
      <circle r="3.5" cy="636.31055" cx="1268.6688" style="fill:#000000;stroke:#000000;stroke-width:5.33210659;"/>
      <circle r="2.6" cy="584.02484" cx="1270.026" style="fill:#000000;stroke:#000000;stroke-width:4;"/>
      <path style="fill:#000000;stroke:#000000;stroke-width:3;" d="M1288.89 535.67l4.43 48.09 6.28 49.01-5.78-49.07-3.94-48.12z"/>
      <circle r="2.6" cy="536.83978" cx="1289.526" style="fill:#000000;stroke:#000000;stroke-width:4;"/>
      <circle r="2.6" cy="581.94434" cx="1293.679" style="fill:#000000;stroke:#000000;stroke-width:4;"/>
      <circle r="3.5" cy="634.23901" cx="1300.8832" style="fill:#000000;stroke:#000000;stroke-width:5.33210659;"/>
      <circle r="2.6" cy="515.42017" cx="1269.1766" style="fill:#000000;stroke:#000000;stroke-width:4;"/>
      <circle r="2.6" cy="549.83356" cx="1276.4802" style="fill:#000000;stroke:#000000;stroke-width:4;"/>
      <circle r="2.6" cy="478.23901" cx="1267.4546" style="fill:#000000;stroke:#000000;stroke-width:4;"/>
      <circle r="2.6" cy="551.62933" cx="1299.312" style="fill:#000000;stroke:#000000;stroke-width:4;"/>
      <path style="fill:none;stroke:#000000;stroke-width:3;" d="M1266.27 478.92l2.39 34.34 6.64 35.97-6.59-35.97-2.35-34.35z"/>
      <circle r="2.6" cy="513.53479" cx="1291.6255" style="fill:#000000;stroke:#000000;stroke-width:4;"/>
      <g transform="translate(1126.8832,114.30543)">
        <use xlink:href="#santa" />
      </g>
    </g>
    </g>
    
    <g id="f6">
    <g transform="matrix(-1,0,0,1,777.28583,80.285666)">
      <circle r="2.6" cy="749.33972" cx="575.09753" id="path4180-3-3-6-2-9-4" style="fill:#000000;stroke:#000000;stroke-width:4;"/>
      <path style="fill:#ff0000;stroke:#000000;stroke-width:2.20582986;" d="M546.66 727.42c3.51-16 27.3-38.99 29.48-51.23 1.09-6.12-0.66-8.56 4.78 3.35 8.14 17.83 5.54 32.53 5.54 43.61 0 7.81-1.65 10.5-2.65 15.18l-1.82 8.44-20.14 0-19.18-1.17z"/>
      <path style="fill:#000000;stroke:#000000;stroke-width:3;" d="M549.82 750.89l8.58 48.87 5.93 50.8-5.43-50.87a0.06 0 77.4034 0 0 0-0.01l-8.1-48.95z"/>
      <circle r="3.5" cy="852.59625" cx="564.95465" style="fill:#000000;stroke:#000000;stroke-width:5.33210659;"/>
      <circle r="2.6" cy="750.23907" cx="549.74036" style="fill:#000000;stroke:#000000;stroke-width:4;"/>
      <circle r="2.6" cy="798.66766" cx="559.16895" style="fill:#000000;stroke:#000000;stroke-width:4;"/>
      <path style="fill:#000000;stroke:#000000;stroke-width:3;" d="M575.67 749.91l-0.49 0.09 8.96 47.81a0.05 0.17 1.5754 0 0 0 0.03l14.16 46.61-13.67-46.74-8.47-47.89-0.49 0.09z"/>
      <circle r="2.6" cy="797.05402" cx="583.52606" id="path4180-6-5-1-8-5-3" style="fill:#000000;stroke:#000000;stroke-width:4;"/>
      <circle r="3.5" cy="848.52478" cx="599.16901" style="fill:#000000;stroke:#000000;stroke-width:5.33210659;"/>
      <circle r="2.6" cy="714.81049" cx="609.88318" style="fill:#000000;stroke:#000000;stroke-width:4;"/>
      <circle r="2.6" cy="720.23907" cx="652.02606" style="fill:#000000;stroke:#000000;stroke-width:4;"/>
      <circle r="2.6" cy="696.52478" cx="567.74036" style="fill:#000000;stroke:#000000;stroke-width:4;"/>
      <circle r="2.6" cy="707.95337" cx="619.81177" style="fill:#000000;stroke:#000000;stroke-width:4;"/>
      <circle r="2.6" cy="713.23907" cx="663.38324" style="fill:#000000;stroke:#000000;stroke-width:4;"/>
      <circle r="2.6" cy="692.23907" cx="585.95465" style="fill:#000000;stroke:#000000;stroke-width:4;"/>
      <path style="fill:none;stroke:#000000;stroke-width:3;" d="M586.9 692.08l32.26 17.64a0.27 0.22 58.2072 0 0 0.09 0.03l44.32 5.47-44.2-5.96-31.98-18.05z"/>
      <path style="fill:none;stroke:#000000;stroke-width:3;" d="M570.39 697.65l35.82 16.21a0.27 0.19 52.4057 0 0 0.06 0.02l45.05 7.61-44.93-8.1-35.58-16.64z"/>
    </g>
    <g transform="translate(44.454729,408.87685)">
      <use xlink:href="#santa" />
    </g>
    </g>

    <g id="f7">
    <g transform="matrix(-1,0,0,1,1291,88.285717)">
      <path style="fill:#ff0000;stroke:#000000;stroke-width:2.20582986;" d="M787.47 711.39c14.78-40.29 30.78-31.54 32.96-43.77 1.09-6.12-0.66-8.56 4.77 3.35 8.14 17.83 5.83 31.39 4.87 42.42-0.71 8.16-1.11 10.01-3.11 15.03l-3.9 9.78-20.14-0.35-25.1-0.15z"/>
      <g>
        <path style="fill:#000000;stroke:#000000;stroke-width:3;" d="M784.12 742.4l16.66 48.47 6.67 50.3-6.18-50.39a0.27 0.17 45.2241 0 0-0.01-0.05l-16.19-48.65z"/>
        <circle style="fill:#000000;stroke:#000000;stroke-width:4;" id="path4180-3-2-5-7" cx="784.02606" cy="741.66766" r="2.6"/>
        <circle style="fill:#000000;stroke:#000000;stroke-width:4;" id="path4180-6-54-6-8" cx="801.45465" cy="790.09625" r="2.6"/>
        <path style="fill:#000000;stroke:#000000;stroke-width:3;" d="M813.46 741.43l9.18 47.1a0.21 0.27 19.0238 0 0 0.02 0.06l24.51 48.82-24.05-49.01-8.67-47.15z"/>
        <circle style="fill:#000000;stroke:#000000;stroke-width:4;" id="path4180-3-3-9-7-6" cx="813.38324" cy="740.76837" r="2.6"/>
        <circle style="fill:#000000;stroke:#000000;stroke-width:4;" id="path4180-6-5-9-4-04" cx="823.81183" cy="788.48267" r="2.6"/>
        <circle style="fill:#000000;stroke:#000000;stroke-width:4;" cx="844.16895" cy="692.23907" r="2.6"/>
        <circle style="fill:#000000;stroke:#000000;stroke-width:4;" cx="886.31177" cy="683.66766" r="2.6"/>
        <circle style="fill:#000000;stroke:#000000;stroke-width:4;" cx="804.02606" cy="685.95337" r="2.6"/>
        <circle style="fill:#000000;stroke:#000000;stroke-width:4;" cx="868.09747" cy="681.38196" r="2.6"/>
        <circle style="fill:#000000;stroke:#000000;stroke-width:4;" id="path4180-62-9-2-2-0-4-9" cx="907.66895" cy="670.66772" r="2.6"/>
        <circle style="fill:#000000;stroke:#000000;stroke-width:4;" id="path4180-62-9-7-6-2-8-75" cx="830.24042" cy="683.66766" r="2.6"/>
        <path style="fill:none;stroke:#000000;stroke-width:3;" d="M831.45 683.58l37.13-1.68a0.27 0.15 21.2317 0 0 0.05-0.01l39.94-10.24-40.03 9.75-37.13 1.18z"/>
        <path style="fill:none;stroke:#000000;stroke-width:3;" d="M806.81 687.12l38.19 5.64a0.27 0.22 37.8299 0 0 0.09 0l39.48-8.19-39.53 7.69-38.08-6.12z"/>
        <circle style="fill:#000000;stroke:#000000;stroke-width:5.33210659;" cx="807.98334" cy="842.42291" r="3.5"/>
        <circle style="fill:#000000;stroke:#000000;stroke-width:5.33210659;" id="path4180-62-8-9-7-0-53" cx="847.37927" cy="841.41278" r="3.5"/>
      </g>
    </g>
    <g transform="translate(314.45465,409.01978)">
      <use xlink:href="#santa" />
    </g>
    </g>

    <g id="f8">
    <g transform="matrix(-1,0,0,1,883.14285,137.85714)">
      <circle r="2.6" cy="635.09625" cx="146.24033" id="path4180-62-9-7-6-5-0-0-0-7" style="fill:#000000;stroke:#000000;stroke-width:4;"/>
      <path style="fill:none;stroke:#000000;stroke-width:3;" d="M148.93 634.51c0.08 11.55 0.17 23.1 0.25 34.64a0.23 0.27 28.6866 0 0 0.02 0.1l16.3 37.4-15.82-37.55c0.01-1.46 0.25-34.59 0.25-34.59z"/>
      <path style="fill:#ff0000;stroke:#000000;stroke-width:2.22465372;" d="M120.72 670.53c-0.27-16.39 8.72-45.67 20.23-51.48 5.56-2.8-0.67-8.55 4.86 3.35 8.28 17.82 7.83 30.61 7.83 41.69 0 7.8 0.82 12.32 1.88 19.82l0.67 7.14-29.78-1.43-5.4-2.14z"/>
      <path style="fill:#000000;stroke:#000000;stroke-width:3;" d="M126.1 693.74l6.82 47.09-0.32 51.05 0.82-51.07a0.24 0.11 62.597 0 0 0-0.03l-6.33-47.18z"/>
      <circle r="3.5" cy="795.45343" cx="133.24033" style="fill:#000000;stroke:#000000;stroke-width:5.33210659;"/>
      <circle r="2.6" cy="692.3819" cx="126.59751" id="path4180-3-0-8-7-9-1" style="fill:#000000;stroke:#000000;stroke-width:4;"/>
      <circle r="2.6" cy="741.16766" cx="132.5975" id="path4180-6-6-4-2-6-7" style="fill:#000000;stroke:#000000;stroke-width:4;"/>
      <path style="fill:#000000;stroke:#000000;stroke-width:3;" d="M149.46 692.86l8.96 47.81 7.53 48.17-7.03-48.25-8.47-47.91z"/>
      <circle r="2.6" cy="693.9826" cx="150.0975" id="path4180-3-3-6-0-2-8-6" style="fill:#000000;stroke:#000000;stroke-width:4;"/>
      <circle r="2.6" cy="741.33978" cx="159.24033" id="path4180-6-5-1-3-9-0-0" style="fill:#000000;stroke:#000000;stroke-width:4;"/>
      <circle r="3.5" cy="791.3819" cx="167.45468" style="fill:#000000;stroke:#000000;stroke-width:5.33210659;"/>
      <circle r="2.6" cy="674.31049" cx="136.52597" id="path4180-62-9-79-1-60-1-5" style="fill:#000000;stroke:#000000;stroke-width:4;"/>
      <circle r="2.6" cy="710.23907" cx="145.5975" id="path4180-62-9-2-20-0-2-0-3" style="fill:#000000;stroke:#000000;stroke-width:4;"/>
      <circle r="2.6" cy="639.3819" cx="132.02609" id="path4180-62-9-7-2-6-7-2-9" style="fill:#000000;stroke:#000000;stroke-width:4;"/>
      <circle r="2.6" cy="709.02472" cx="166.95456" id="path4180-62-9-6-3-3-6-2-4" style="fill:#000000;stroke:#000000;stroke-width:4;"/>
      <path style="fill:none;stroke:#000000;stroke-width:3;" d="M130.84 640.06l4.67 35.36 9.66 35.71-9.62-35.72-4.62-35.36z"/>
    </g>
    <g transform="translate(584.16893,408.59118)">
      <use xlink:href="#santa" />
    </g>
    </g>
    
    <g id="f9">
    <g transform="translate(-6,-5)">
      <circle transform="scale(-1,1)" r="2.6" cy="777.28827" cx="-1010.1891" id="path4180-62-9-7-6-5-0-6-0-5" style="fill:#000000;stroke:#000000;stroke-width:4;"/>
      <path style="fill:none;stroke:#000000;stroke-width:3;" d="M1006.53 776.87l13.45 36.7 12.35 33.95-11.88-34.12-12.98-36.87z"/>
      <circle transform="scale(-1,1)" r="2.6" cy="835.66968" cx="-987.29639" id="path4180-3-3-6-0-0-1-3" style="fill:#000000;stroke:#000000;stroke-width:4;"/>
      <path style="fill:#ff0000;stroke:#000000;stroke-width:2.22465372;" d="M1025.59 814.6c0.35-16.39 1.4-47.54-10.12-53.35-5.56-2.8 7.05-2.17-4.85 3.34-9.04 4.19-18.92 19.93-22 30.57-2.6 8.98-3.85 14.36-4.9 20.09-0.22 7.48-0.97 13.99-0.95 16.16l39.19 0.21 3.34-3.72z"/>
      <path style="fill:#000000;stroke:#000000;stroke-width:3;" d="M1009.33 835.89l2.73 48.64a0.12 0.25 17.6674 0 0 0.01 0.04l10.51 48.75-10.02-48.83-2.22-48.66z"/>
      <circle transform="scale(-1,1)" r="3.5" cy="937.64557" cx="-1023.1891" style="fill:#000000;stroke:#000000;stroke-width:5.33210659;"/>
      <circle transform="scale(-1,1)" r="2.6" cy="835.33173" cx="-1011.2456" id="path4180-3-0-8-4-3-5" style="fill:#000000;stroke:#000000;stroke-width:4;"/>
      <circle transform="scale(-1,1)" r="2.6" cy="884.875" cx="-1012.0438" id="path4180-6-6-4-4-8-0" style="fill:#000000;stroke:#000000;stroke-width:4;"/>
      <path style="fill:#000000;stroke:#000000;stroke-width:3;" d="M985.98 835.01l4.88 47.61-1.1 49.27 1.6-49.27a0.2 0.07 69.6602 0 0 0-0.04l-4.39-47.67z"/>
      <circle transform="scale(-1,1)" r="2.6" cy="883.88904" cx="-990.68909" id="path4180-6-5-1-3-7-0-5" style="fill:#000000;stroke:#000000;stroke-width:4;"/>
      <circle transform="scale(-1,1)" r="3.5" cy="933.5741" cx="-988.97473" style="fill:#000000;stroke:#000000;stroke-width:5.33210659;"/>
      <circle transform="scale(-1,1)" r="2.6" cy="814.76025" cx="-1036.145" id="path4180-62-9-79-1-6-7-5" style="fill:#000000;stroke:#000000;stroke-width:4;"/>
      <circle transform="scale(-1,1)" r="2.6" cy="851.28058" cx="-1049.5601" id="path4180-62-9-2-20-0-8-6-9" style="fill:#000000;stroke:#000000;stroke-width:4;"/>
      <circle transform="scale(-1,1)" r="2.6" cy="779.30121" cx="-1024.4033" id="path4180-62-9-7-2-6-8-3-9" style="fill:#000000;stroke:#000000;stroke-width:4;"/>
      <circle transform="scale(-1,1)" r="2.6" cy="849.77039" cx="-1032.8563" id="path4180-62-9-6-3-3-4-5-0" style="fill:#000000;stroke:#000000;stroke-width:4;"/>
      <path style="fill:none;stroke:#000000;stroke-width:3;" d="M1026.21 780.48l10.26 31.67 12.5 38.67-12.46-38.68-10.21-31.69z"/>
      <g transform="translate(860.57736,414.65057)">
        <use xlink:href="#santa" />
      </g>
    </g>
    </g>
    
    <g id="f10">
    <g transform="translate(-2,-2)">
      <circle transform="scale(-1,1)" r="2.6" cy="833.01636" cx="-1294.1207" id="path4180-3-0-8-9-5-6" style="fill:#000000;stroke:#000000;stroke-width:4;"/>
      <path style="fill:#ff0000;stroke:#000000;stroke-width:2.22465372;" d="M1300.98 803.59c-0.25-9.89-7.71-36.83-19.22-42.64-5.56-2.8 5.41-6.1-4.85 2.09-5.25 4.19-9.35 28.84-11.12 40.17-1.2 7.71-0.57 9.79-0.36 17.04l2.61 10.93 32.81-0.92 0.61-8.21z"/>
      <circle transform="scale(-1,1)" r="2.6" cy="774.72046" cx="-1272.1847" id="path4180-62-9-7-6-5-0-64-8-0" style="fill:#000000;stroke:#000000;stroke-width:4;"/>
      <path style="fill:none;stroke:#000000;stroke-width:3;" d="M1272.79 775.1l-2.53 34.15-6.48 39.8 6.98-39.73a0.09 0.01 89.7739 0 0 0-0.02l3.03-34.12z"/>
      <path style="fill:#000000;stroke:#000000;stroke-width:3;" d="M1294.12 834.3l-0.5-0.03-2.55 47.16a0.12 0.25 23.9503 0 0 0 0.04l5.07 48.23-4.57-48.26 3.05-47.11-0.5-0.03z"/>
      <circle transform="scale(-1,1)" r="3.5" cy="934.08777" cx="-1295.4779" style="fill:#000000;stroke:#000000;stroke-width:5.33210659;"/>
      <circle transform="scale(-1,1)" r="2.6" cy="881.80212" cx="-1292.1207" id="path4180-6-6-4-46-9-9" style="fill:#000000;stroke:#000000;stroke-width:4;"/>
      <path style="fill:#000000;stroke:#000000;stroke-width:3;" d="M1272.27 833.36l-3.94 48.13-3.78 49.06 4.27-49.02 4.44-48.08z"/>
      <circle transform="scale(-1,1)" r="2.6" cy="834.61707" cx="-1272.6207" id="path4180-3-3-6-0-22-2-0" style="fill:#000000;stroke:#000000;stroke-width:4;"/>
      <circle transform="scale(-1,1)" r="2.6" cy="879.72168" cx="-1268.4678" id="path4180-6-5-1-3-4-2-6" style="fill:#000000;stroke:#000000;stroke-width:4;"/>
      <circle transform="scale(-1,1)" r="3.5" cy="932.01636" cx="-1263.2635" style="fill:#000000;stroke:#000000;stroke-width:5.33210659;"/>
      <circle transform="scale(-1,1)" r="2.6" cy="813.19751" cx="-1292.9701" id="path4180-62-9-79-1-7-6-8" style="fill:#000000;stroke:#000000;stroke-width:4;"/>
      <circle transform="scale(-1,1)" r="2.6" cy="847.61084" cx="-1285.6665" id="path4180-62-9-2-20-0-5-3-3" style="fill:#000000;stroke:#000000;stroke-width:4;"/>
      <circle transform="scale(-1,1)" r="2.6" cy="776.01636" cx="-1294.6921" id="path4180-62-9-7-2-6-4-0-7" style="fill:#000000;stroke:#000000;stroke-width:4;"/>
      <circle transform="scale(-1,1)" r="2.6" cy="849.40662" cx="-1262.8347" id="path4180-62-9-6-3-3-8-2-8" style="fill:#000000;stroke:#000000;stroke-width:4;"/>
      <path style="fill:none;stroke:#000000;stroke-width:3;" d="M1295.79 776.69l-2.35 34.35-6.59 35.97 6.63-35.97 2.4-34.34z"/>
      <circle transform="scale(-1,1)" r="2.6" cy="811.31201" cx="-1270.5212" id="path4180-62-9-79-1-7-8-6-1" style="fill:#000000;stroke:#000000;stroke-width:4;"/>
      <g transform="translate(1126.7122,411.66432)">
        <use xlink:href="#santa" />
      </g>
    </g>
    </g>
    
  </g>
  </g>
</svg>

